# xmcd
#
# Track frame offsets:
#	150
#	13336
#	34300
#	46225
#	69644
#	89321
#	116297
#	148815
#	160892
#	170945
#	185349
#	220749
#	247572
#	288574
#	316913
#	343310
#
# Disc length: 4717 seconds
#
# Revision: 4
# Processed by: cddbd v1.5.2PL0 Copyright (c) Steve Scherf et al.
# Submitted via: EZCDAudioConverter 2.1.7.1
#
DISCID=ed126b10
DTITLE=Velvet Undeground and Nico - Velvet Undeground and Nico 1/6
DYEAR=1967
DGENRE=
TTITLE0=Sunday Morning
TTITLE1=I'm Waiting For The Man
TTITLE2=Femme Fatale
TTITLE3=Venus In Furs
TTITLE4=Run Run Run
TTITLE5=All Tomorrow's Parties
TTITLE6=Heroin
TTITLE7=There She Goes Again
TTITLE8=I'll Be Your Mirror
TTITLE9=The Black Angel's Death Song
TTITLE10=European Son
TTITLE11=All Tomorrow's Parties [Alternate Single Voice Version]
TTITLE12=European Son [Alternate Version]
TTITLE13=Heroin [Alternate Version]
TTITLE14=All Tomorrow's Parties [Alternate Instrumental Mix]
TTITLE15=I'll Be Your Mirror [Alternate Mix]
EXTD=
EXTT0=
EXTT1=
EXTT2=
EXTT3=
EXTT4=
EXTT5=
EXTT6=
EXTT7=
EXTT8=
EXTT9=
EXTT10=
EXTT11=
EXTT12=
EXTT13=
EXTT14=
EXTT15=
PLAYORDER=
